<svg xmlns="http://www.w3.org/2000/svg" width="900" height="278" viewBox="0 0 900 278" role="img">
  <text x="16.0" y="24.0" font-family="-apple-system, BlinkMacSystemFont, 'Segoe UI', Helvetica, Arial, sans-serif" font-size="15" font-weight="600" fill="#ffffff" text-anchor="start">DNS query throughput</text>
  <text x="16.0" y="43.0" font-family="-apple-system, BlinkMacSystemFont, 'Segoe UI', Helvetica, Arial, sans-serif" font-size="12" font-weight="400" fill="#c3c2b7" text-anchor="start">queries/sec served to clients, 5-run mean — higher is better</text>
  <text x="134.0" y="76.0" font-family="-apple-system, BlinkMacSystemFont, 'Segoe UI', Helvetica, Arial, sans-serif" font-size="12" font-weight="600" fill="#c3c2b7" text-anchor="end">Bindizr + BIND9</text>
  <path d="M146.0,62.0 H806.0 A4,4 0 0 1 810.0,66.0 V78.0 A4,4 0 0 1 806.0,82.0 H146.0 Z" fill="#3987e5"/>
  <text x="818.0" y="76.0" font-family="-apple-system, BlinkMacSystemFont, 'Segoe UI', Helvetica, Arial, sans-serif" font-size="12" font-weight="600" fill="#ffffff" text-anchor="start">58,414</text>
  <text x="134.0" y="108.0" font-family="-apple-system, BlinkMacSystemFont, 'Segoe UI', Helvetica, Arial, sans-serif" font-size="12" font-weight="400" fill="#c3c2b7" text-anchor="end">Native BIND9</text>
  <path d="M146.0,94.0 H803.3 A4,4 0 0 1 807.3,98.0 V110.0 A4,4 0 0 1 803.3,114.0 H146.0 Z" fill="#7a7972"/>
  <text x="815.3" y="108.0" font-family="-apple-system, BlinkMacSystemFont, 'Segoe UI', Helvetica, Arial, sans-serif" font-size="12" font-weight="400" fill="#ffffff" text-anchor="start">58,179</text>
  <text x="134.0" y="140.0" font-family="-apple-system, BlinkMacSystemFont, 'Segoe UI', Helvetica, Arial, sans-serif" font-size="12" font-weight="400" fill="#c3c2b7" text-anchor="end">CoreDNS</text>
  <path d="M146.0,126.0 H797.5 A4,4 0 0 1 801.5,130.0 V142.0 A4,4 0 0 1 797.5,146.0 H146.0 Z" fill="#7a7972"/>
  <text x="809.5" y="140.0" font-family="-apple-system, BlinkMacSystemFont, 'Segoe UI', Helvetica, Arial, sans-serif" font-size="12" font-weight="400" fill="#ffffff" text-anchor="start">57,669</text>
  <text x="134.0" y="172.0" font-family="-apple-system, BlinkMacSystemFont, 'Segoe UI', Helvetica, Arial, sans-serif" font-size="12" font-weight="400" fill="#c3c2b7" text-anchor="end">PowerDNS</text>
  <path d="M146.0,158.0 H770.8 A4,4 0 0 1 774.8,162.0 V174.0 A4,4 0 0 1 770.8,178.0 H146.0 Z" fill="#7a7972"/>
  <text x="782.8" y="172.0" font-family="-apple-system, BlinkMacSystemFont, 'Segoe UI', Helvetica, Arial, sans-serif" font-size="12" font-weight="400" fill="#ffffff" text-anchor="start">55,315</text>
  <text x="134.0" y="204.0" font-family="-apple-system, BlinkMacSystemFont, 'Segoe UI', Helvetica, Arial, sans-serif" font-size="12" font-weight="400" fill="#c3c2b7" text-anchor="end">Knot DNS</text>
  <path d="M146.0,190.0 H583.3 A4,4 0 0 1 587.3,194.0 V206.0 A4,4 0 0 1 583.3,210.0 H146.0 Z" fill="#7a7972"/>
  <text x="595.3" y="204.0" font-family="-apple-system, BlinkMacSystemFont, 'Segoe UI', Helvetica, Arial, sans-serif" font-size="12" font-weight="400" fill="#ffffff" text-anchor="start">38,821</text>
  <text x="134.0" y="236.0" font-family="-apple-system, BlinkMacSystemFont, 'Segoe UI', Helvetica, Arial, sans-serif" font-size="12" font-weight="400" fill="#c3c2b7" text-anchor="end">Technitium</text>
  <path d="M146.0,222.0 H275.2 A4,4 0 0 1 279.2,226.0 V238.0 A4,4 0 0 1 275.2,242.0 H146.0 Z" fill="#7a7972"/>
  <text x="287.2" y="236.0" font-family="-apple-system, BlinkMacSystemFont, 'Segoe UI', Helvetica, Arial, sans-serif" font-size="12" font-weight="400" fill="#ffffff" text-anchor="start">11,721</text>
  <line x1="146" y1="56" x2="146" y2="248" stroke="#3a3a37" stroke-width="1"/>
  <text x="16.0" y="270.0" font-family="-apple-system, BlinkMacSystemFont, 'Segoe UI', Helvetica, Arial, sans-serif" font-size="11" font-weight="400" fill="#9a998f" text-anchor="start">Bindizr is outside the query data plane: clients query the BIND9 secondaries, so throughput tracks native BIND9 (+0.4%).</text>
</svg>
